<svg width="8" height="12" viewBox="0 0 8 12" fill="none" xmlns="http://www.w3.org/2000/svg">
<path d="M7.34088 5.60118L0.204222 0.0270364C0.185574 0.012355 0.163163 0.00323107 0.139563 0.00071249C0.115963 -0.00180609 0.0921308 0.0023828 0.0708041 0.0127982C0.0494774 0.0232136 0.0315212 0.039433 0.018997 0.0595937C0.00647282 0.0797544 -0.000111154 0.103039 1.41977e-06 0.126773L1.41977e-06 1.35052C1.41977e-06 1.42809 0.036413 1.5025 0.0965712 1.54999L5.79576 6.00012L0.0965712 10.4503C0.0348299 10.4977 1.41977e-06 10.5722 1.41977e-06 10.6497L1.41977e-06 11.8735C1.41977e-06 11.9795 0.121901 12.0381 0.204222 11.9732L7.34088 6.39907C7.40154 6.35175 7.45061 6.29123 7.48436 6.2221C7.51811 6.15297 7.53565 6.07705 7.53565 6.00012C7.53565 5.9232 7.51811 5.84728 7.48436 5.77815C7.45061 5.70902 7.40154 5.64849 7.34088 5.60118Z" fill="black" fill-opacity="0.45"/>
</svg>
