<svg width="12" height="8" viewBox="0 0 12 8" fill="none" xmlns="http://www.w3.org/2000/svg">
<path d="M6.39899 7.34065L11.973 0.204216C11.9876 0.185568 11.9968 0.163158 11.9993 0.139558C12.0018 0.115959 11.9976 0.0921279 11.9872 0.0708019C11.9768 0.0494759 11.9606 0.0315202 11.9404 0.0189964C11.9202 0.00647262 11.897 -0.000111155 11.8732 1.41419e-06L10.6495 1.3607e-06C10.572 1.35731e-06 10.4975 0.0364118 10.4501 0.0965681L6.00006 5.79558L1.55007 0.0965677C1.50257 0.0348284 1.42817 9.57621e-07 1.3506 9.54231e-07L0.126892 9.00741e-07C0.020826 8.96104e-07 -0.0377476 0.121896 0.0271587 0.204216L5.60113 7.34065C5.64844 7.40131 5.70896 7.45038 5.77809 7.48412C5.84722 7.51787 5.92313 7.53542 6.00006 7.53542C6.07699 7.53542 6.1529 7.51787 6.22203 7.48412C6.29116 7.45038 6.35168 7.40131 6.39899 7.34065Z" fill="black" fill-opacity="0.45"/>
</svg>
