<svg width="34" height="34" viewBox="0 0 34 34" fill="none" xmlns="http://www.w3.org/2000/svg">
<g filter="url(#filter0_dd_12_4344)">
<path d="M11.0398 21.625C11.0867 21.625 11.1336 21.6203 11.1805 21.6133L15.1227 20.9219C15.1695 20.9125 15.2141 20.8914 15.2469 20.8563L25.182 10.9211C25.2038 10.8994 25.221 10.8737 25.2328 10.8453C25.2445 10.8169 25.2506 10.7866 25.2506 10.7559C25.2506 10.7252 25.2445 10.6948 25.2328 10.6664C25.221 10.6381 25.2038 10.6123 25.182 10.5906L21.2867 6.69297C21.2422 6.64844 21.1836 6.625 21.1203 6.625C21.057 6.625 20.9984 6.64844 20.9539 6.69297L11.0187 16.6281C10.9836 16.6633 10.9625 16.7055 10.9531 16.7523L10.2617 20.6945C10.2389 20.8201 10.2471 20.9493 10.2855 21.071C10.3238 21.1927 10.3913 21.3032 10.482 21.393C10.6367 21.543 10.8313 21.625 11.0398 21.625ZM12.6195 17.5375L21.1203 9.03906L22.8383 10.757L14.3375 19.2555L12.2539 19.6234L12.6195 17.5375ZM25.625 23.5938H8.375C7.96016 23.5938 7.625 23.9289 7.625 24.3438V25.1875C7.625 25.2906 7.70937 25.375 7.8125 25.375H26.1875C26.2906 25.375 26.375 25.2906 26.375 25.1875V24.3438C26.375 23.9289 26.0398 23.5938 25.625 23.5938Z" fill="#333333"/>
</g>
<defs>
<filter id="filter0_dd_12_4344" x="-2" y="-2" width="38" height="38" filterUnits="userSpaceOnUse" color-interpolation-filters="sRGB">
<feFlood flood-opacity="0" result="BackgroundImageFix"/>
<feColorMatrix in="SourceAlpha" type="matrix" values="0 0 0 0 0 0 0 0 0 0 0 0 0 0 0 0 0 0 127 0" result="hardAlpha"/>
<feOffset dx="1" dy="2"/>
<feGaussianBlur stdDeviation="2"/>
<feComposite in2="hardAlpha" operator="out"/>
<feColorMatrix type="matrix" values="0 0 0 0 0 0 0 0 0 0 0 0 0 0 0 0 0 0 0.06 0"/>
<feBlend mode="normal" in2="BackgroundImageFix" result="effect1_dropShadow_12_4344"/>
<feColorMatrix in="SourceAlpha" type="matrix" values="0 0 0 0 0 0 0 0 0 0 0 0 0 0 0 0 0 0 127 0" result="hardAlpha"/>
<feOffset dx="-1"/>
<feGaussianBlur stdDeviation="2"/>
<feComposite in2="hardAlpha" operator="out"/>
<feColorMatrix type="matrix" values="0 0 0 0 0 0 0 0 0 0 0 0 0 0 0 0 0 0 0.06 0"/>
<feBlend mode="normal" in2="effect1_dropShadow_12_4344" result="effect2_dropShadow_12_4344"/>
<feBlend mode="normal" in="SourceGraphic" in2="effect2_dropShadow_12_4344" result="shape"/>
</filter>
</defs>
</svg>
