<svg width="16" height="16" viewBox="0 0 16 16" fill="none" xmlns="http://www.w3.org/2000/svg">
<path d="M13.4683 7.27031H12.2027C12.1308 7.27031 12.0621 7.30156 12.0137 7.35625L8.59334 11.2984V2.5C8.59334 2.43125 8.53709 2.375 8.46834 2.375H7.53084C7.46209 2.375 7.40584 2.43125 7.40584 2.5V11.2984L3.98553 7.35625C3.93865 7.30156 3.8699 7.27031 3.79647 7.27031H2.53084C2.42459 7.27031 2.36678 7.39687 2.43709 7.47656L7.62303 13.4531C7.66991 13.5072 7.72786 13.5506 7.79297 13.5803C7.85807 13.61 7.9288 13.6254 8.00037 13.6254C8.07194 13.6254 8.14268 13.61 8.20778 13.5803C8.27288 13.5506 8.33084 13.5072 8.37772 13.4531L13.5621 7.47656C13.6324 7.39531 13.5746 7.27031 13.4683 7.27031Z" fill="#667085"/>
</svg>
