<svg width="36" height="36" viewBox="0 0 36 36" fill="none" xmlns="http://www.w3.org/2000/svg">
<path d="M19.2143 18L25.3666 10.6664C25.4697 10.5445 25.383 10.3594 25.2236 10.3594H23.3533C23.2432 10.3594 23.1377 10.4086 23.065 10.493L17.9908 16.5422L12.9166 10.493C12.8463 10.4086 12.7408 10.3594 12.6283 10.3594H10.758C10.5986 10.3594 10.5119 10.5445 10.615 10.6664L16.7674 18L10.615 25.3336C10.5919 25.3608 10.5771 25.394 10.5723 25.4293C10.5675 25.4647 10.573 25.5006 10.5881 25.533C10.6031 25.5653 10.6271 25.5926 10.6573 25.6117C10.6874 25.6308 10.7223 25.6408 10.758 25.6406H12.6283C12.7385 25.6406 12.8439 25.5914 12.9166 25.507L17.9908 19.4578L23.065 25.507C23.1353 25.5914 23.2408 25.6406 23.3533 25.6406H25.2236C25.383 25.6406 25.4697 25.4555 25.3666 25.3336L19.2143 18Z" fill="black" fill-opacity="0.45"/>
</svg>
