<svg width="16" height="22" viewBox="0 0 16 22" fill="none" xmlns="http://www.w3.org/2000/svg">
<mask id="path-2-inside-1_0_15" fill="white">
<path d="M0 7C0 4.79086 1.79086 3 4 3H12C14.2091 3 16 4.79086 16 7V15C16 17.2091 14.2091 19 12 19H4C1.79086 19 0 17.2091 0 15V7Z"/>
</mask>
<path d="M0 7C0 4.79086 1.79086 3 4 3H12C14.2091 3 16 4.79086 16 7V15C16 17.2091 14.2091 19 12 19H4C1.79086 19 0 17.2091 0 15V7Z" fill="white"/>
<path d="M4 3V4H12V3V2H4V3ZM16 7H15V15H16H17V7H16ZM12 19V18H4V19V20H12V19ZM0 15H1V7H0H-1V15H0ZM4 19V18C2.34315 18 1 16.6569 1 15H0H-1C-1 17.7614 1.23858 20 4 20V19ZM16 15H15C15 16.6569 13.6569 18 12 18V19V20C14.7614 20 17 17.7614 17 15H16ZM12 3V4C13.6569 4 15 5.34315 15 7H16H17C17 4.23858 14.7614 2 12 2V3ZM4 3V2C1.23858 2 -1 4.23858 -1 7H0H1C1 5.34315 2.34315 4 4 4V3Z" fill="#D9D9D9" mask="url(#path-2-inside-1_0_15)"/>
</svg>
