<svg width="34" height="34" viewBox="0 0 34 34" fill="none" xmlns="http://www.w3.org/2000/svg">
<g filter="url(#filter0_dd_12_4347)">
<path d="M13.4375 8.3125H13.25C13.3531 8.3125 13.4375 8.22812 13.4375 8.125V8.3125H20.5625V8.125C20.5625 8.22812 20.6469 8.3125 20.75 8.3125H20.5625V10H22.25V8.125C22.25 7.29766 21.5773 6.625 20.75 6.625H13.25C12.4227 6.625 11.75 7.29766 11.75 8.125V10H13.4375V8.3125ZM25.25 10H8.75C8.33516 10 8 10.3352 8 10.75V11.5C8 11.6031 8.08437 11.6875 8.1875 11.6875H9.60312L10.182 23.9453C10.2195 24.7445 10.8805 25.375 11.6797 25.375H22.3203C23.1219 25.375 23.7805 24.7469 23.818 23.9453L24.3969 11.6875H25.8125C25.9156 11.6875 26 11.6031 26 11.5V10.75C26 10.3352 25.6648 10 25.25 10ZM22.1398 23.6875H11.8602L11.293 11.6875H22.707L22.1398 23.6875Z" fill="#333333"/>
</g>
<defs>
<filter id="filter0_dd_12_4347" x="-2" y="-2" width="38" height="38" filterUnits="userSpaceOnUse" color-interpolation-filters="sRGB">
<feFlood flood-opacity="0" result="BackgroundImageFix"/>
<feColorMatrix in="SourceAlpha" type="matrix" values="0 0 0 0 0 0 0 0 0 0 0 0 0 0 0 0 0 0 127 0" result="hardAlpha"/>
<feOffset dx="1" dy="2"/>
<feGaussianBlur stdDeviation="2"/>
<feComposite in2="hardAlpha" operator="out"/>
<feColorMatrix type="matrix" values="0 0 0 0 0 0 0 0 0 0 0 0 0 0 0 0 0 0 0.06 0"/>
<feBlend mode="normal" in2="BackgroundImageFix" result="effect1_dropShadow_12_4347"/>
<feColorMatrix in="SourceAlpha" type="matrix" values="0 0 0 0 0 0 0 0 0 0 0 0 0 0 0 0 0 0 127 0" result="hardAlpha"/>
<feOffset dx="-1"/>
<feGaussianBlur stdDeviation="2"/>
<feComposite in2="hardAlpha" operator="out"/>
<feColorMatrix type="matrix" values="0 0 0 0 0 0 0 0 0 0 0 0 0 0 0 0 0 0 0.06 0"/>
<feBlend mode="normal" in2="effect1_dropShadow_12_4347" result="effect2_dropShadow_12_4347"/>
<feBlend mode="normal" in="SourceGraphic" in2="effect2_dropShadow_12_4347" result="shape"/>
</filter>
</defs>
</svg>
