<svg width="16" height="22" viewBox="0 0 16 22" fill="none" xmlns="http://www.w3.org/2000/svg">
<path d="M0 7C0 4.79086 1.79086 3 4 3H12C14.2091 3 16 4.79086 16 7V15C16 17.2091 14.2091 19 12 19H4C1.79086 19 0 17.2091 0 15V7Z" fill="#A284E0"/>
<path d="M12.4688 6.84961C12.6699 6.84961 12.789 7.0837 12.6602 7.24414L12.6592 7.24316L6.9375 14.4961H6.93652C6.7256 14.7609 6.32265 14.7619 6.1123 14.4961L2.90234 10.4297C2.77666 10.2703 2.89024 10.0353 3.09375 10.0352H3.91309L4.03027 10.0488C4.06878 10.0577 4.10681 10.0705 4.14258 10.0879C4.21376 10.1226 4.2762 10.1732 4.3252 10.2354L6.52344 13.0215L11.2383 7.0498C11.3373 6.92341 11.4895 6.84973 11.6494 6.84961H12.4688Z" fill="white" stroke="white" stroke-width="0.3"/>
</svg>
